<?xml version="1.0" encoding="utf-8"?>
<!-- Generator: Adobe Illustrator 19.2.1, SVG Export Plug-In . SVG Version: 6.00 Build 0)  -->
<svg version="1.1" id="Layer_1" xmlns:sketch="http://www.bohemiancoding.com/sketch/ns"
	 xmlns="http://www.w3.org/2000/svg" xmlns:xlink="http://www.w3.org/1999/xlink" x="0px" y="0px" viewBox="0 0 280 280"
	 style="enable-background:new 0 0 280 280;" xml:space="preserve">
<style type="text/css">
	.st0{fill:#F200DB;}
	.st1{fill:#0FE84C;}
	.st2{font-family:'OpenSans-Bold';}
	.st3{font-size:147.1166px;}
	.st4{font-family:'OpenSans-Light';}
	.st5{font-size:24.5194px;}
	.st6{letter-spacing:-1;}
</style>
<g>
	<g>
		<g>
			<path class="st0" d="M204.8,256.3c-4.1,0-8.1-2.1-10.4-5.8c-3.6-5.8-1.8-13.3,4-16.9c25.1-15.5,42.6-39.8,49.4-68.5
				c6.8-28.7,1.9-58.3-13.6-83.3C202.2,30,134,14,82.3,46c-24.1,14.9-41.4,38.3-48.7,65.7c-1.7,6.5-8.4,10.5-15,8.7
				c-6.5-1.7-10.5-8.4-8.7-15c8.8-33.6,30-62.1,59.5-80.3C132.6-14,215.9,5.6,255,68.9c19,30.6,24.8,66.8,16.6,101.9
				c-8.3,35.1-29.7,64.8-60.3,83.8C209.3,255.7,207,256.3,204.8,256.3z"/>
		</g>
		<path class="st1" d="M139.4,275c-17.5,0-35.2-3.4-52.3-10.6c-68.5-29-100.7-108.3-71.7-176.7c13.5-32,38.5-57.2,70.3-71.1
			c6.2-2.7,13.4,0.1,16.1,6.3c2.7,6.2-0.1,13.4-6.3,16.1C69.5,50.4,49.1,71,38,97.2c-23.7,56,2.6,120.9,58.7,144.6
			c56,23.7,120.9-2.6,144.6-58.7c2.6-6.2,9.9-9.1,16.1-6.5c6.2,2.6,9.1,9.8,6.5,16.1C242.1,244.1,192,275,139.4,275z"/>
	</g>
	<g>
		<text transform="matrix(1 0 0 1 90.8345 181.4629)" class="st2 st3">R</text>
		<text transform="matrix(1 0 0 1 103.0942 208.6836)" class="st4 st5 st6">readable.</text>
	</g>
</g>
</svg>
